<svg id="Layer_1" height="512" viewBox="0 0 512 512" width="512" xmlns="http://www.w3.org/2000/svg" data-name="Layer 1"><path d="m179.662 398.966c.16 3.049.759 8.731 1.393 14.747.231 2.192.465 4.419.687 6.593l9.174.758c.1.008.2.019.3.033a24.115 24.115 0 0 0 6.97.279 31.663 31.663 0 0 0 -1.372-3.52c-.187-.428-.37-.848-.541-1.254-6.4-15.184-4.5-30.266-2.11-49.361 2.257-17.994 5.041-40.22 2.378-71.271-2.8-.464-5.24-.963-7.276-1.433a100.649 100.649 0 0 1 -.658 17.137c-6.061 48.334-9.319 80.151-8.945 87.292z"/><path d="m37.963 125.635c11.965 4.479 21.4 8.478 22.692 9.031a60.864 60.864 0 0 1 18.045 10.966 51.061 51.061 0 0 1 17.939 40.184c-.4 30.593 4.855 52.859 15.968 67.4a76.361 76.361 0 0 1 1.178-36.687 5 5 0 0 1 9.515 3.071c-.091.286-9.2 29.854 9.495 53.658a81.314 81.314 0 0 1 16.305 37.698l8.226 52.987a81.672 81.672 0 0 1 -.874 29.769l-4.332 20.055a15.437 15.437 0 0 1 -12.6 11.951l-.332.053a2.8 2.8 0 0 0 .455 5.561h26.987a5.635 5.635 0 0 0 3.884-1.462 5.352 5.352 0 0 0 1.685-4.452c-.319-3.357-.71-7.065-1.089-10.656-.648-6.151-1.261-11.961-1.434-15.274-.525-10.019 4.606-53.959 9-89.057a91.4 91.4 0 0 0 -4.837-42.569l-6.692-18.3a5.14 5.14 0 0 1 2.451-6.419 5 5 0 0 1 6.868 2.787l6.765 18.5a101 101 0 0 1 4.982 19.529 126.265 126.265 0 0 0 35.5 3.839c20.4-.535 51.234-5.9 84.084-27.949-17.044-28.774-17.961-46.619-18-47.831a5 5 0 0 1 9.993-.361c.036.694 3.057 46.642 74.958 111.327a99.727 99.727 0 0 1 32.113 58.487c1.53 9.862 1.076 29.127-3.117 36.868a4.993 4.993 0 0 1 -3.025 2.427c-.071.021-8.22 2.429-14.029 7.9a2.632 2.632 0 0 0 -.626 3.064 2.712 2.712 0 0 0 2.735 1.726l29.291-1.461a5.9 5.9 0 0 0 3.749-1.5 5.589 5.589 0 0 0 1.638-5.434l-3.356-13.773a30.587 30.587 0 0 1 -.834-8.742l2.839-58.349a20.7 20.7 0 0 0 -1.726-9.315c-19.607-44.477-17.384-54.631-14.021-70 1.967-8.989 4.414-20.176 2.273-43.415a63.759 63.759 0 0 0 -4.528-19.237 16.488 16.488 0 0 1 8.186-21.63c25.048-11.555 58.817-31.434 77.444-60.515q.324-.505.635-1c-31.29 31.106-77.739 48.959-99.435 56.047a40.853 40.853 0 0 1 -22.35.768c-22.855-5.555-55.431-4.834-93.151-4-8.514.189-17.317.384-26.45.521q-2.567.038-5.057.038c-61.664 0-87.189-17.546-100.822-38.062-3.553 10.35-10.418 19.1-16.53 25.35a16.433 16.433 0 0 1 -11.825 5.021 17.063 17.063 0 0 1 -2.578-.2 16.428 16.428 0 0 1 -12.285-8.906c-5.353-10.541-5.717-21.669-1.053-32.18 3.58-8.07 4.261-15.3 2.024-21.481a4.966 4.966 0 0 1 1.389-5.563 5.02 5.02 0 0 1 7.984 2.078c2.187 5.991 3.57 15.889-2.256 29.022-3.452 7.778-3.173 15.717.828 23.6a6.59 6.59 0 0 0 10.621 1.619c7.391-7.559 16.062-19.238 16.082-32.327-2.045-4.526-3.793-9.038-5.478-13.395-.856-2.213-1.7-4.4-2.568-6.536-7.713-19.021-30.3-21.943-43.436-21.943h-.483a19.082 19.082 0 0 0 -10.805 3.447l-5.634 3.912a30.472 30.472 0 0 1 -14.386 5.3l-27.527 2.703a3 3 0 0 0 -2.58 3.857c4.656 15.325 10.505 26.052 15.335 27.86z"/><path d="m378.831 412.671a15.931 15.931 0 0 1 -4.309 2.187 68.349 68.349 0 0 0 -15.648 7.2 2.584 2.584 0 0 0 -1.067 3.116 2.69 2.69 0 0 0 2.822 1.966l15.913-.715a12.735 12.735 0 0 1 3.3-5.05 48.247 48.247 0 0 1 15.79-9.441c1.968-6 2.717-20.136 1.352-28.936a89.7 89.7 0 0 0 -28.919-52.584c-26-23.393-43.366-44.444-54.963-62.086q-4.857 3.249-9.655 6.056a352.327 352.327 0 0 0 40.395 42.424c17.129 15.41 35.988 41.115 39.506 63.805l1.789 17.484a15.888 15.888 0 0 1 -6.306 14.574z"/></svg>