<svg id="Capa_1" enable-background="new 0 0 512 512" height="512" viewBox="0 0 512 512" width="512" xmlns="http://www.w3.org/2000/svg"><g><path d="m62.86 393.962c-18.422 5.636-31.86 22.795-31.86 43.038v30c0 24.813 20.187 45 45 45h360c24.813 0 45-20.187 45-45v-30c0-20.243-13.438-37.402-31.86-43.038-16.141-100.882-45.815-230.254-141.026-265.102 14.097-13.643 22.886-32.739 22.886-53.86 0-41.355-33.645-75-75-75s-75 33.645-75 75c0 21.121 8.789 40.217 22.886 53.86-95.232 34.856-124.865 164.097-141.026 265.102zm80.64-63.962c19.687 0 29.399-21.362 37.5-29.135 8.103 7.775 17.824 29.135 37.5 29.135 19.687 0 29.399-21.362 37.5-29.135 8.103 7.775 17.824 29.135 37.5 29.135 19.687 0 29.399-21.362 37.5-29.135 8.103 7.775 17.824 29.135 37.5 29.135 15.003 0 23.727-11.93 32.19-22.879 7.303 27.103 12.989 55.908 17.748 84.879h-324.877c4.759-28.971 10.446-57.776 17.748-84.879 8.351 10.803 17.082 22.879 32.191 22.879zm307.5 137c0 8.271-6.729 15-15 15h-360c-8.271 0-15-6.729-15-15v-30c0-8.271 6.729-15 15-15h359.938c.014 0 .029.002.043.002.011 0 .022-.001.033-.001 8.265.008 14.986 6.733 14.986 14.999zm-240-392c0-24.813 20.187-45 45-45s45 20.187 45 45-20.187 45-45 45-45-20.187-45-45zm45 75c70.458 0 110.21 53.105 134.848 124.768-10.217 6.777-16.543 18.797-22.348 24.367-8.103-7.775-17.824-29.135-37.5-29.135-19.687 0-29.399 21.362-37.5 29.135-8.103-7.775-17.824-29.135-37.5-29.135-19.687 0-29.399 21.362-37.5 29.135-8.103-7.775-17.824-29.135-37.5-29.135-19.687 0-29.399 21.362-37.5 29.135-5.831-5.595-12.111-17.577-22.348-24.367 24.638-71.663 64.39-124.768 134.848-124.768z"/></g></svg>