<svg height="384pt" viewBox="0 0 384 384" width="384pt" xmlns="http://www.w3.org/2000/svg"><path d="m304 128v-64c0-35.289062-28.710938-64-64-64h-80c-35.289062 0-64 28.710938-64 64v64h-16c-44.113281 0-80 35.886719-80 80v160c0 8.832031 7.167969 16 16 16h352c8.832031 0 16-7.167969 16-16v-160c0-44.113281-35.886719-80-80-80zm-176-64c0-17.648438 14.351562-32 32-32h80c17.648438 0 32 14.351562 32 32v64h-144zm-96 288v-144c0-20.855469 13.382812-38.59375 32-45.199219v21.199219c0 8.832031 7.167969 16 16 16s16-7.167969 16-16v-21.199219c18.617188 6.605469 32 24.34375 32 45.199219v144zm320 0h-192v-144c0-18.015625-6.0625-34.609375-16.152344-48h160.152344c26.472656 0 48 21.527344 48 48zm0 0"/></svg>