<?xml version="1.0" encoding="iso-8859-1"?>
<!-- Generator: Adobe Illustrator 21.0.0, SVG Export Plug-In . SVG Version: 6.00 Build 0)  -->
<svg version="1.1" id="Capa_1" xmlns="http://www.w3.org/2000/svg" xmlns:xlink="http://www.w3.org/1999/xlink" x="0px" y="0px"
	 viewBox="0 0 512 512" style="enable-background:new 0 0 512 512;" xml:space="preserve">
<g>
	<g>
		<g>
			<path d="M469.333,85.333H384V51.2C383.972,22.935,361.065,0.028,332.8,0H179.2c-28.265,0.028-51.172,22.935-51.2,51.2v34.133
				H42.667C19.114,85.362,0.028,104.448,0,128v341.333C0.028,492.886,19.114,511.972,42.667,512h426.667
				c23.552-0.028,42.638-19.114,42.667-42.667V128C511.972,104.448,492.886,85.362,469.333,85.333z M145.067,51.2
				c0-18.851,15.282-34.133,34.133-34.133h153.6c18.851,0,34.133,15.282,34.133,34.133v34.133H145.067V51.2z M17.067,128
				c0-14.138,11.462-25.6,25.6-25.6h24.917c-3.804,26.163-24.354,46.713-50.517,50.517V128z M42.667,494.933
				c-14.138,0-25.6-11.461-25.6-25.6v-24.917c26.163,3.804,46.713,24.354,50.517,50.517H42.667z M494.933,469.333
				c0,14.138-11.461,25.6-25.6,25.6h-24.917c3.804-26.163,24.354-46.713,50.517-50.517V469.333z M494.933,427.17
				c-35.621,4.033-63.73,32.142-67.763,67.763H409.6v-128c0-4.713-3.82-8.533-8.533-8.533s-8.533,3.82-8.533,8.533v128H358.4v-51.2
				c0-4.713-3.82-8.533-8.533-8.533s-8.533,3.82-8.533,8.533v51.2H170.667V384c0-4.713-3.82-8.533-8.533-8.533
				s-8.533,3.82-8.533,8.533v110.933h-34.133V375.467c0-4.713-3.82-8.533-8.533-8.533s-8.533,3.82-8.533,8.533v119.467H84.83
				c-4.033-35.621-32.142-63.73-67.763-67.763V170.163c35.621-4.033,63.73-32.142,67.763-67.763h17.57v68.267
				c0,4.713,3.82,8.533,8.533,8.533s8.533-3.82,8.533-8.533V102.4H153.6v59.733c0,4.713,3.82,8.533,8.533,8.533
				s8.533-3.82,8.533-8.533V102.4h170.667v34.133c0,4.713,3.82,8.533,8.533,8.533s8.533-3.82,8.533-8.533V102.4h34.133v59.733
				c0,4.713,3.821,8.533,8.533,8.533s8.533-3.82,8.533-8.533V102.4h17.57c4.033,35.621,32.142,63.73,67.763,67.763V427.17z
				 M494.933,152.917c-26.163-3.804-46.713-24.354-50.517-50.517h24.917c14.138,0,25.6,11.461,25.6,25.6V152.917z"/>
			<path d="M204.8,307.2c0.005-6.304-2.33-12.386-6.554-17.067c4.22-4.682,6.555-10.763,6.554-17.067
				c0.088-6.288-2.353-12.348-6.775-16.819c5.873-6.394,8.106-15.328,5.93-23.733c-2.175-8.405-8.462-15.134-16.699-17.876
				c-0.423-0.101-0.753-0.431-0.853-0.853c-3.478-10.453-13.252-17.509-24.269-17.519c-6.286-0.088-12.345,2.35-16.819,6.767
				c-9.634-8.801-24.409-8.734-33.963,0.154c-6.372-5.975-15.35-8.289-23.816-6.138c-8.466,2.151-15.251,8.47-17.997,16.762
				c-0.101,0.423-0.431,0.753-0.853,0.853c-10.44,3.489-17.48,13.261-17.485,24.269c-0.088,6.288,2.353,12.348,6.775,16.819
				c-4.357,4.713-6.776,10.896-6.775,17.314c-0.088,6.288,2.353,12.348,6.775,16.819c-5.873,6.394-8.106,15.328-5.93,23.733
				c2.175,8.405,8.462,15.134,16.699,17.876c0.423,0.101,0.753,0.431,0.853,0.853c3.477,10.453,13.252,17.509,24.269,17.519
				c6.286,0.088,12.345-2.35,16.819-6.767c9.701,8.735,24.432,8.735,34.133,0c6.395,5.877,15.333,8.111,23.741,5.934
				s15.138-8.469,17.876-16.711c0.101-0.423,0.431-0.753,0.853-0.853C197.739,327.988,204.792,318.214,204.8,307.2z M185.472,301.44
				c1.952,2.134,2.69,5.111,1.961,7.91s-2.826,5.037-5.57,5.948c-5.506,1.807-9.824,6.125-11.631,11.631
				c-1.03,2.639-3.263,4.624-6.005,5.337c-2.742,0.713-5.659,0.067-7.844-1.736c-6.414-5.838-16.216-5.838-22.63,0
				c-3.279,2.918-8.224,2.918-11.503,0c-6.413-5.842-16.218-5.842-22.63,0c-2.186,1.799-5.102,2.443-7.843,1.73
				c-2.74-0.713-4.974-2.695-6.007-5.331c-1.809-5.503-6.127-9.818-11.631-11.622c-2.747-0.912-4.844-3.153-5.571-5.954
				c-0.727-2.801,0.014-5.78,1.97-7.913c5.824-6.416,5.824-16.206,0-22.622c-3.019-3.243-3.019-8.268,0-11.511
				c5.824-6.416,5.824-16.206,0-22.622c-1.455-1.562-2.266-3.617-2.27-5.751c0-3.687,2.368-6.956,5.871-8.107
				c5.503-1.806,9.821-6.12,11.631-11.622c1.04-2.649,3.289-4.638,6.046-5.344c2.757-0.707,5.686-0.045,7.872,1.777
				c6.332,5.914,16.162,5.914,22.494,0c3.296-2.943,8.275-2.943,11.571,0c6.411,5.846,16.219,5.846,22.63,0
				c2.186-1.803,5.105-2.447,7.847-1.733c2.742,0.715,4.975,2.702,6.003,5.342c1.81,5.502,6.128,9.816,11.631,11.622
				c2.747,0.912,4.844,3.153,5.571,5.954c0.727,2.801-0.014,5.78-1.97,7.913c-5.796,6.412-5.793,16.172,0.009,22.579
				c3.014,3.242,3.014,8.261,0,11.503C179.648,285.234,179.648,295.024,185.472,301.44z"/>
			<path d="M339.866,170.914l-42.231,42.24c-4.802,4.801-7.5,11.313-7.5,18.103c0,6.79,2.698,13.302,7.5,18.103l84.48,84.48
				c4.801,4.802,11.313,7.5,18.104,7.5c6.79,0,13.302-2.698,18.103-7.5l42.231-42.24c4.802-4.801,7.5-11.313,7.5-18.103
				s-2.698-13.302-7.5-18.103l-84.48-84.48C366.065,160.938,349.873,160.938,339.866,170.914z M448.478,279.526l-42.249,42.24
				c-3.331,3.326-8.726,3.326-12.058,0l-84.48-84.48c-3.326-3.331-3.326-8.726,0-12.058l42.231-42.24
				c1.601-1.602,3.773-2.503,6.037-2.503s4.437,0.9,6.037,2.503l84.48,84.48C451.803,270.8,451.803,276.195,448.478,279.526z"/>
			<path d="M336.154,362.778c-1.451-2.683-4.223-4.388-7.272-4.472c-3.049-0.085-5.912,1.464-7.509,4.062
				c-1.598,2.598-1.688,5.851-0.237,8.534l11.955,21.632l-119.714-0.154l59.358-110.891l29.867,55.194
				c2.246,4.147,7.428,5.689,11.576,3.443c4.147-2.246,5.689-7.428,3.443-11.576l-29.867-55.185
				c-2.884-5.432-8.532-8.827-14.682-8.827s-11.797,3.396-14.682,8.827l-60.023,110.933c-2.935,5.369-2.798,11.893,0.358,17.135
				c2.986,5.07,8.435,8.178,14.319,8.166H333.09c5.896,0.006,11.351-3.12,14.327-8.209c3.157-5.242,3.293-11.766,0.358-17.135
				L336.154,362.778z"/>
		</g>
	</g>
</g>
<g>
</g>
<g>
</g>
<g>
</g>
<g>
</g>
<g>
</g>
<g>
</g>
<g>
</g>
<g>
</g>
<g>
</g>
<g>
</g>
<g>
</g>
<g>
</g>
<g>
</g>
<g>
</g>
<g>
</g>
</svg>
