<svg id="Capa_1" enable-background="new 0 0 511.994 511.994" height="512" viewBox="0 0 511.994 511.994" width="512" xmlns="http://www.w3.org/2000/svg"><g><path d="m416.515 185.372-21.612 7.497c-6.015 2.088-12.694.17-16.676-4.788l-25.445-31.668c-5.196-6.466-4.153-15.911 2.329-21.094 6.483-5.185 15.948-4.143 21.144 2.323l18.8 23.4 23.875-8.283c7.062-2.449 14.848.645 18.291 7.262l49.238 95.344c20.267-46.692 36.687-95.847 15.938-155.488-21.005-60.374-72.33-99.54-130.756-99.779-.111 0-.22-.001-.331-.001-30.695 0-53.062 17.605-72.803 33.143-15.382 12.106-28.678 22.573-42.51 22.707-13.832-.135-27.128-10.601-42.51-22.707-19.742-15.539-42.104-33.143-72.803-33.143-.109 0-.222.001-.331.001-58.425.239-109.75 39.405-130.756 99.778-23.532 67.64.743 121.793 24.219 174.162 3.636 8.11 7.395 16.496 10.919 24.811 5.685 13.408 11.142 37.011 16.919 62 13.517 58.471 28.839 124.743 63.028 144.823 10.909 6.407 23.264 7.903 35.728 4.327 34.142-9.794 45.337-50.489 56.163-89.845 11.246-40.88 20.08-67.738 39.424-67.977 19.344.238 28.179 27.097 39.424 67.977 10.827 39.356 22.021 80.051 56.163 89.845 12.052 3.458 24.888 2.039 35.728-4.327 34.189-20.08 49.51-86.352 63.028-144.823 5.777-24.99 11.235-48.593 16.919-62.001 1.181-2.787 2.394-5.58 3.614-8.37z"/></g></svg>